<?xml version="1.0" encoding="UTF-8" standalone="no"?>
<svg
   xmlns:dc="http://purl.org/dc/elements/1.1/"
   xmlns:cc="http://creativecommons.org/ns#"
   xmlns:rdf="http://www.w3.org/1999/02/22-rdf-syntax-ns#"
   xmlns:svg="http://www.w3.org/2000/svg"
   xmlns="http://www.w3.org/2000/svg"
   xmlns:sodipodi="http://sodipodi.sourceforge.net/DTD/sodipodi-0.dtd"
   xmlns:inkscape="http://www.inkscape.org/namespaces/inkscape"
   width="10.877902mm"
   height="12.123398mm"
   viewBox="0 0 10.877902 12.123398"
   version="1.1"
   id="svg4983"
   inkscape:version="1.0.2-2 (e86c870879, 2021-01-15)"
   sodipodi:docname="arrow-left.svg">
  <defs
     id="defs4977" />
  <sodipodi:namedview
     id="base"
     pagecolor="#ffffff"
     bordercolor="#666666"
     borderopacity="1.0"
     inkscape:pageopacity="0.0"
     inkscape:pageshadow="2"
     inkscape:zoom="3.959798"
     inkscape:cx="-17.34416"
     inkscape:cy="87.748925"
     inkscape:document-units="mm"
     inkscape:current-layer="layer1"
     inkscape:document-rotation="0"
     showgrid="false"
     fit-margin-top="0"
     fit-margin-left="0"
     fit-margin-right="0"
     fit-margin-bottom="0"
     inkscape:window-width="3840"
     inkscape:window-height="2080"
     inkscape:window-x="2869"
     inkscape:window-y="-11"
     inkscape:window-maximized="1" />
  <metadata
     id="metadata4980">
    <rdf:RDF>
      <cc:Work
         rdf:about="">
        <dc:format>image/svg+xml</dc:format>
        <dc:type
           rdf:resource="http://purl.org/dc/dcmitype/StillImage" />
        <dc:title></dc:title>
      </cc:Work>
    </rdf:RDF>
  </metadata>
  <g
     inkscape:label="レイヤー 1"
     inkscape:groupmode="layer"
     id="layer1"
     transform="translate(-83.025346,-20.932523)">
    <path
       d="m 83.291698,27.259429 h 10.34697 c 0.14464,0 0.26458,-0.118533 0.26458,-0.264583 0,-0.146403 -0.11994,-0.264583 -0.26458,-0.264583 h -10.34697 c -0.14817,0 -0.26459,0.11818 -0.26459,0.264583 0,0.14605 0.11642,0.264583 0.26459,0.264583"
       style="fill:#8f3d3d;fill-opacity:1;fill-rule:nonzero;stroke:none;stroke-width:0.0352778"
       id="path2561" />
    <path
       d="m 89.945088,33.055921 c 0.51858,0 1.016,-0.187325 1.397,-0.567972 0.62441,-0.621594 0.81138,-1.7272 0.0459,-2.502253 -0.53975,-0.545042 -1.10067,-0.500592 -1.38642,-0.424039 -0.45508,0.119592 -0.83256,0.469195 -0.94192,0.869598 -0.0741,0.282927 -0.004,0.559505 0.19756,0.758825 0.1023,0.103363 0.26811,0.103363 0.37394,0 0.10231,-0.103364 0.10231,-0.270581 0,-0.373945 -0.0423,-0.04233 -0.0953,-0.113242 -0.06,-0.246944 0.0529,-0.185914 0.26106,-0.415925 0.56445,-0.496006 0.21519,-0.05644 0.53975,-0.05327 0.87488,0.284692 0.5327,0.540455 0.39864,1.316919 -0.0423,1.755069 -0.61383,0.61207 -1.651,0.535517 -2.36008,-0.17533 -0.9137,-0.912636 -1.22767,-2.240492 -0.7867,-3.305175 0.35984,-0.872773 1.17475,-1.373364 2.23661,-1.373364 0.14817,0 0.26459,-0.118534 0.26459,-0.264584 0,-0.14605 -0.11642,-0.264583 -0.26459,-0.264583 -1.28411,0 -2.27894,0.619478 -2.72697,1.700036 -0.52211,1.25977 -0.15875,2.819753 0.90311,3.881967 0.49389,0.493183 1.11478,0.744008 1.71098,0.744008"
       style="fill:#8f3d3d;fill-opacity:1;fill-rule:nonzero;stroke:none;stroke-width:0.0352778"
       id="path2563" />
    <path
       d="m 88.421088,32.389524 c 0.067,0 0.13405,-0.02611 0.18697,-0.07761 0.1023,-0.103364 0.1023,-0.270933 0,-0.374297 l -5.12939,-5.130448 c -0.10583,-0.103364 -0.27164,-0.103364 -0.37395,0 -0.10583,0.103364 -0.10583,0.270934 0,0.374297 l 5.12939,5.130448 c 0.0529,0.05151 0.11995,0.07761 0.18698,0.07761"
       style="fill:#8f3d3d;fill-opacity:1;fill-rule:nonzero;stroke:none;stroke-width:0.0352778"
       id="path2565" />
    <path
       d="m 90.057968,27.259077 c 0.14817,0 0.26459,-0.118534 0.26459,-0.264584 0,-0.14605 -0.11642,-0.264583 -0.26459,-0.264583 -1.06186,0 -1.87677,-0.500592 -2.23661,-1.373717 -0.44097,-1.064683 -0.127,-2.392539 0.7867,-3.305175 0.70908,-0.710495 1.74625,-0.787753 2.36008,-0.175331 0.44097,0.43815 0.57503,1.214967 0.0423,1.755423 -0.33513,0.337608 -0.65969,0.341136 -0.87488,0.284339 -0.30339,-0.08008 -0.51153,-0.310092 -0.56445,-0.496006 -0.0353,-0.133703 0.0176,-0.204611 0.06,-0.246592 0.10231,-0.103364 0.10231,-0.270933 0,-0.374297 -0.10583,-0.103364 -0.27164,-0.103364 -0.37394,0 -0.20108,0.19932 -0.27164,0.47625 -0.19756,0.758825 0.10936,0.400403 0.48684,0.750006 0.94192,0.86995 0.28575,0.07479 0.84667,0.121003 1.38642,-0.424039 0.76552,-0.775405 0.57855,-1.881364 -0.0459,-2.502605 -0.82198,-0.820914 -2.18723,-0.743656 -3.10798,0.176036 -1.06186,1.062214 -1.42522,2.622197 -0.90311,3.881967 0.44803,1.080558 1.44286,1.700389 2.72697,1.700389"
       style="fill:#8f3d3d;fill-opacity:1;fill-rule:nonzero;stroke:none;stroke-width:0.0352778"
       id="path2567" />
    <path
       d="m 83.291698,27.259077 c 0.067,0 0.13405,-0.02611 0.18697,-0.07761 l 5.12939,-5.130449 c 0.1023,-0.103364 0.1023,-0.270933 0,-0.374297 -0.10231,-0.103364 -0.27164,-0.103364 -0.37395,0 l -5.12939,5.130447 c -0.10583,0.103364 -0.10583,0.270934 0,0.374297 0.0494,0.05151 0.11642,0.07761 0.18698,0.07761"
       style="fill:#8f3d3d;fill-opacity:1;fill-rule:nonzero;stroke:none;stroke-width:0.0352778"
       id="path2569" />
  </g>
</svg>
