<?xml version="1.0" encoding="UTF-8" standalone="no"?>
<svg
   xmlns:dc="http://purl.org/dc/elements/1.1/"
   xmlns:cc="http://creativecommons.org/ns#"
   xmlns:rdf="http://www.w3.org/1999/02/22-rdf-syntax-ns#"
   xmlns:svg="http://www.w3.org/2000/svg"
   xmlns="http://www.w3.org/2000/svg"
   xmlns:sodipodi="http://sodipodi.sourceforge.net/DTD/sodipodi-0.dtd"
   xmlns:inkscape="http://www.inkscape.org/namespaces/inkscape"
   width="32.283482mm"
   height="32.283821mm"
   viewBox="0 0 32.283482 32.283821"
   version="1.1"
   id="svg8"
   inkscape:version="1.0.2-2 (e86c870879, 2021-01-15)"
   sodipodi:docname="edge-right.svg">
  <defs
     id="defs2" />
  <sodipodi:namedview
     id="base"
     pagecolor="#ffffff"
     bordercolor="#666666"
     borderopacity="1.0"
     inkscape:pageopacity="0.0"
     inkscape:pageshadow="2"
     inkscape:zoom="0.35"
     inkscape:cx="-556.33819"
     inkscape:cy="153.89346"
     inkscape:document-units="mm"
     inkscape:current-layer="layer1"
     inkscape:document-rotation="0"
     showgrid="false"
     fit-margin-top="0"
     fit-margin-left="0"
     fit-margin-right="0"
     fit-margin-bottom="0"
     inkscape:window-width="3840"
     inkscape:window-height="2080"
     inkscape:window-x="2869"
     inkscape:window-y="-11"
     inkscape:window-maximized="1" />
  <metadata
     id="metadata5">
    <rdf:RDF>
      <cc:Work
         rdf:about="">
        <dc:format>image/svg+xml</dc:format>
        <dc:type
           rdf:resource="http://purl.org/dc/dcmitype/StillImage" />
        <dc:title></dc:title>
      </cc:Work>
    </rdf:RDF>
  </metadata>
  <g
     inkscape:label="レイヤー 1"
     inkscape:groupmode="layer"
     id="layer1"
     transform="translate(117.38552,-107.44902)">
    <path
       d="m -104.2068,135.26485 c 0.14112,-0.0882 0.26812,-0.19403 0.37748,-0.31397 0.37994,-0.42334 0.59443,-1.11831 0.5334,-1.72862 -0.03,-0.30338 -0.14358,-0.72319 -0.51188,-0.99836 -0.28858,-0.21519 -0.6985,-0.23636 -0.95356,-0.0529 -0.25647,0.18697 -0.39229,0.52916 -0.32985,0.82902 0.0441,0.2152 0.18909,0.37042 0.35666,0.55387 0.0448,0.0494 0.0896,0.0988 0.1337,0.14816 0.19544,0.22578 0.4565,0.58209 0.46708,1.05481 0.004,0.15522 -0.0201,0.33161 -0.073,0.508 z m 2.05811,-8.17739 c 2.11102,0 4.18204,1.22767 5.27664,3.12208 0.95387,1.65453 1.09566,3.80295 0.37924,5.74322 -0.80713,2.19075 -3.04003,3.77825 -5.3091,3.77825 -0.14605,0 -0.26458,-0.11641 -0.26458,-0.26458 0,-0.14464 0.11853,-0.26458 0.26458,-0.26458 2.05528,0 4.07931,-1.44286 4.8127,-3.43253 0.66245,-1.79564 0.53495,-3.77472 -0.34106,-5.29519 -1.0021,-1.73567 -2.89331,-2.8575 -4.81842,-2.8575 -1.62525,0 -3.15313,0.635 -4.19171,1.74272 -0.98989,1.0548 -1.45908,2.4518 -1.35678,4.03578 0.078,1.20297 1.1176,2.159 2.36714,2.16958 0.0928,0.004 0.18133,-0.004 0.26952,-0.0141 0.25224,-0.0494 0.40393,-0.49389 0.39758,-0.77964 -0.005,-0.23636 -0.10936,-0.45861 -0.33831,-0.7232 -0.0402,-0.0459 -0.0819,-0.0917 -0.12277,-0.13405 -0.19297,-0.21167 -0.41169,-0.44803 -0.48507,-0.80433 -0.10512,-0.508 0.11078,-1.05481 0.53658,-1.36525 0.44238,-0.32103 1.10701,-0.29987 1.58115,0.0529 0.41381,0.31045 0.66357,0.78317 0.72213,1.37231 0.0759,0.762 -0.18556,1.59808 -0.66639,2.1343 -0.45791,0.51153 -1.14371,0.79023 -1.89971,0.79023 -1.52506,-0.0141 -2.79435,-1.18534 -2.88996,-2.66348 -0.11183,-1.73566 0.4064,-3.26672 1.49896,-4.43089 1.13806,-1.21708 2.8067,-1.91205 4.57764,-1.91205"
       style="fill:#323268;fill-opacity:1;fill-rule:nonzero;stroke:none;stroke-width:0.0352778"
       id="path2719" />
    <path
       d="m -100.58588,124.52276 c -0.5207,-1.21708 -0.56939,-2.63525 -0.56939,-3.11502 0,-0.8502 0.20214,-2.00731 0.5835,-2.8822 -0.89112,0.49389 -1.67076,1.37583 -2.11314,2.15547 -0.0374,0.067 -0.10125,0.11289 -0.17533,0.13053 -0.0737,0.0141 -0.1517,-0.003 -0.21202,-0.0459 -0.86184,-0.63853 -1.82386,-1.17475 -2.86667,-1.59808 0.42192,1.04422 0.95708,2.00378 1.59561,2.86808 0.0452,0.06 0.0621,0.13758 0.0462,0.21167 -0.0155,0.0741 -0.0621,0.13758 -0.12805,0.17639 -0.77964,0.44097 -1.66159,1.22061 -2.15548,2.11314 0.87454,-0.381 2.032,-0.58562 2.88008,-0.58562 0.48119,0 1.8983,0.0494 3.11468,0.5715 z m 0.6223,-6.80367 c 0.0854,0 0.16757,0.0413 0.21766,0.1143 0.0646,0.0924 0.0621,0.21943 -0.006,0.30762 -0.54716,0.72673 -0.87383,2.23309 -0.87383,3.26673 0,1.15358 0.24906,2.71638 0.94827,3.65125 0.0787,0.10583 0.0681,0.254 -0.0247,0.34572 -0.0935,0.0917 -0.24059,0.1023 -0.34572,0.0247 -0.93416,-0.6985 -2.49908,-0.94897 -3.65231,-0.94897 -1.03434,0 -2.53788,0.32808 -3.2639,0.87489 -0.0907,0.067 -0.21519,0.0705 -0.30939,0.007 -0.0938,-0.067 -0.13546,-0.18345 -0.10406,-0.29281 0.31185,-1.07244 1.25447,-2.20839 2.43875,-2.95628 -0.70132,-0.99483 -1.27459,-2.10608 -1.70604,-3.31258 -0.0346,-0.0953 -0.0106,-0.20461 0.0617,-0.27516 0.0727,-0.0741 0.18062,-0.0988 0.27623,-0.0635 1.2072,0.43038 2.32022,1.00541 3.31364,1.70744 0.74648,-1.18533 1.88207,-2.12725 2.95628,-2.44016 0.0243,-0.007 0.049,-0.0102 0.0737,-0.0102"
       style="fill:#323268;fill-opacity:1;fill-rule:nonzero;stroke:none;stroke-width:0.0352778"
       id="path2711" />
    <path
       d="m -85.3667,107.44902 c 0.14609,0 0.26459,0.11854 0.26459,0.26459 v 31.75282 c 0,0.14817 -0.1185,0.26458 -0.26459,0.26458 h -31.75423 c -0.14605,0 -0.26459,-0.11641 -0.26459,-0.26458 0,-0.14464 0.11854,-0.26458 0.26459,-0.26458 h 31.48965 v -31.48824 c 0,-0.14605 0.11853,-0.26459 0.26458,-0.26459"
       style="fill:#323268;fill-opacity:1;fill-rule:nonzero;stroke:none;stroke-width:0.0352778"
       id="path2713" />
    <path
       d="m -85.36656,129.56749 c 0.0515,0 0.10365,0.0141 0.14926,0.0459 0.12058,0.0811 0.15159,0.24694 0.069,0.36689 -1.22576,1.79211 -5.17084,2.7058 -7.79159,1.91558 0.79322,2.62114 -0.12234,6.56519 -1.91477,7.78933 -0.12058,0.0847 -0.28526,0.0529 -0.36781,-0.067 -0.0825,-0.11995 -0.0515,-0.28575 0.069,-0.36689 1.71898,-1.17828 2.5473,-5.34811 1.52813,-7.69409 -0.0433,-0.0988 -0.0212,-0.21519 0.0557,-0.2928 0.077,-0.0776 0.19332,-0.0988 0.29242,-0.0565 2.34748,1.01953 6.51661,0.19403 7.69207,-1.52753 0.0513,-0.0741 0.13423,-0.11288 0.21854,-0.11288"
       style="fill:#323268;fill-opacity:1;fill-rule:nonzero;stroke:none;stroke-width:0.0352778"
       id="path2715" />
    <path
       d="m -90.04774,120.70218 c -0.01,0 -0.0194,0 -0.0291,0 -0.47449,-0.0106 -0.82945,-0.27164 -1.05505,-0.46919 -0.0508,-0.0423 -0.10005,-0.0882 -0.1488,-0.13406 -0.18246,-0.16581 -0.34012,-0.31044 -0.55235,-0.3563 -0.30205,-0.0635 -0.64368,0.0741 -0.8304,0.33161 -0.18546,0.254 -0.16341,0.66322 0.0515,0.9525 0.27453,0.36688 0.69497,0.4833 0.99935,0.51152 0.61256,0.0635 1.30556,-0.15169 1.7285,-0.53269 0.12154,-0.10936 0.2268,-0.23636 0.31433,-0.37747 -0.16454,0.0494 -0.33158,0.0741 -0.47805,0.0741 z m -1.81723,-4.10774 c 0.15117,0 0.30413,0.005 0.45889,0.0152 1.47959,0.0956 2.65067,1.3656 2.66595,2.8896 0.007,0.74789 -0.28085,1.44286 -0.79044,1.90147 -0.53509,0.47978 -1.37432,0.74083 -2.1343,0.66322 -0.58844,-0.0564 -1.06261,-0.30691 -1.37115,-0.71966 -0.35348,-0.47625 -0.37676,-1.13948 -0.0553,-1.58045 0.30953,-0.42686 0.85852,-0.64558 1.36564,-0.53975 0.35528,0.0741 0.59313,0.29281 0.80285,0.48683 0.0451,0.0423 0.0903,0.0811 0.13713,0.12348 0.26402,0.2293 0.48644,0.33161 0.72072,0.33866 0.28374,0.007 0.73353,-0.14816 0.78271,-0.40216 0.01,-0.0847 0.0138,-0.17639 0.0129,-0.26459 -0.0124,-1.25236 -0.96601,-2.29094 -2.17096,-2.3689 -1.58281,-0.10019 -2.97875,0.36689 -4.03476,1.35643 -1.10765,1.0407 -1.74321,2.56822 -1.74321,4.191 0,1.92617 1.12229,3.81706 2.85916,4.81895 1.51874,0.87489 3.49828,1.00541 5.29484,0.34219 1.98931,-0.73378 3.43295,-2.75872 3.43295,-4.81189 0,-0.14817 0.11853,-0.26458 0.26458,-0.26458 0.14609,0 0.26459,0.11641 0.26459,0.26458 0,2.26836 -1.58941,4.50145 -3.77914,5.30931 -1.94204,0.71261 -4.0889,0.5715 -5.74227,-0.381 -1.89769,-1.09361 -3.12388,-3.16442 -3.12388,-5.27756 0,-1.77094 0.69631,-3.43958 1.9105,-4.57553 1.06151,-0.99589 2.42715,-1.51482 3.97193,-1.51482"
       style="fill:#323268;fill-opacity:1;fill-rule:nonzero;stroke:none;stroke-width:0.0352778"
       id="path2717" />
  </g>
</svg>
