<?xml version="1.0" encoding="UTF-8" standalone="no"?>
<svg
   xmlns:dc="http://purl.org/dc/elements/1.1/"
   xmlns:cc="http://creativecommons.org/ns#"
   xmlns:rdf="http://www.w3.org/1999/02/22-rdf-syntax-ns#"
   xmlns:svg="http://www.w3.org/2000/svg"
   xmlns="http://www.w3.org/2000/svg"
   xmlns:sodipodi="http://sodipodi.sourceforge.net/DTD/sodipodi-0.dtd"
   xmlns:inkscape="http://www.inkscape.org/namespaces/inkscape"
   width="22.5709mm"
   height="44.615711mm"
   viewBox="0 0 22.5709 44.615711"
   version="1.1"
   id="svg8"
   inkscape:version="1.0.2-2 (e86c870879, 2021-01-15)"
   sodipodi:docname="frame-right.svg">
  <defs
     id="defs2" />
  <sodipodi:namedview
     id="base"
     pagecolor="#ffffff"
     bordercolor="#666666"
     borderopacity="1.0"
     inkscape:pageopacity="0.0"
     inkscape:pageshadow="2"
     inkscape:zoom="0.35"
     inkscape:cx="42.653657"
     inkscape:cy="84.313159"
     inkscape:document-units="mm"
     inkscape:current-layer="layer1"
     inkscape:document-rotation="0"
     showgrid="false"
     fit-margin-top="0"
     fit-margin-left="0"
     fit-margin-right="0"
     fit-margin-bottom="0"
     inkscape:window-width="3840"
     inkscape:window-height="2080"
     inkscape:window-x="2869"
     inkscape:window-y="-11"
     inkscape:window-maximized="1" />
  <metadata
     id="metadata5">
    <rdf:RDF>
      <cc:Work
         rdf:about="">
        <dc:format>image/svg+xml</dc:format>
        <dc:type
           rdf:resource="http://purl.org/dc/dcmitype/StillImage" />
        <dc:title></dc:title>
      </cc:Work>
    </rdf:RDF>
  </metadata>
  <g
     inkscape:label="レイヤー 1"
     inkscape:groupmode="layer"
     id="layer1"
     transform="translate(275.86878,-125.85881)">
    <path
       d="m -275.60429,170.47452 c 0.0677,0 0.13547,-0.0258 0.18733,-0.0776 l 22.04156,-22.04121 c 0.10336,-0.10336 0.10336,-0.27093 0,-0.3743 l -22.04156,-22.04508 c -0.10336,-0.10336 -0.27093,-0.10336 -0.3743,0 -0.10336,0.10336 -0.10336,0.27058 0,0.37394 l 21.85459,21.85812 -21.85459,21.85458 c -0.10336,0.10336 -0.10336,0.27058 0,0.37395 0.0519,0.0519 0.11924,0.0776 0.18697,0.0776"
       style="fill:#323267;fill-opacity:1;fill-rule:nonzero;stroke:none;stroke-width:0.0352778"
       id="path2133" />
    <path
       d="m -263.67016,148.16767 c -0.44662,0.26458 -0.77894,0.68721 -1.08585,1.07703 -0.23566,0.29986 -0.45826,0.58314 -0.71826,0.79481 -0.46002,0.3743 -1.19733,0.34572 -1.64465,-0.0639 -0.41557,-0.3803 -0.54963,-1.11655 -0.65758,-1.7078 l -0.0183,-0.10019 0.0183,-0.0995 c 0.10795,-0.59161 0.24201,-1.32751 0.65758,-1.70815 0.44732,-0.40923 1.18463,-0.4378 1.64465,-0.0635 0.26,0.21166 0.4826,0.49494 0.71826,0.79481 0.30691,0.38981 0.63923,0.81209 1.08585,1.07632 z m -8.19009,7.69267 c 0.68086,0 1.3536,-0.26211 1.84008,-0.69426 1.4157,-1.25766 1.74273,-3.64526 2.00555,-5.56366 0.003,-0.0212 0.006,-0.0423 0.009,-0.0635 0.11923,0.31256 0.28504,0.60289 0.52952,0.82691 0.64381,0.5902 1.66969,0.62653 2.33609,0.0836 0.30551,-0.24871 0.55704,-0.56833 0.8001,-0.87736 0.48084,-0.61137 0.89676,-1.13947 1.63865,-1.13983 v 0 c 3.6e-4,0 3.6e-4,0 10e-4,0 0.14605,0 0.26423,-0.11818 0.26423,-0.26458 0,-0.1464 -0.12629,-0.26564 -0.26493,-0.26458 h -3.6e-4 c -0.74224,0 -1.15781,-0.52811 -1.63865,-1.13912 -0.24306,-0.30904 -0.49459,-0.62865 -0.8001,-0.87736 -0.66604,-0.54293 -1.69228,-0.50659 -2.33609,0.0836 -0.24448,0.22401 -0.41029,0.51435 -0.52952,0.82691 -0.003,-0.0212 -0.006,-0.0423 -0.009,-0.0635 -0.26282,-1.91841 -0.58985,-4.30601 -2.00555,-5.56366 -0.95955,-0.85196 -2.64195,-1.04352 -3.68758,0.133 -0.41416,0.46637 -0.58032,1.14194 -0.44415,1.80728 0.13194,0.64593 0.52105,1.16452 1.06715,1.42275 0.79975,0.37853 1.61043,-0.0582 1.93182,-0.6992 0.27093,-0.5394 0.21307,-1.25942 -0.526,-1.65206 -0.12982,-0.0684 -0.28927,-0.0198 -0.35771,0.10936 -0.0688,0.12876 -0.0198,0.28928 0.10936,0.35771 0.56903,0.30234 0.37465,0.80187 0.30127,0.94757 -0.20426,0.40816 -0.70556,0.70696 -1.23261,0.45825 -0.3944,-0.18626 -0.67662,-0.56903 -0.77505,-1.05022 -0.10266,-0.50306 0.0176,-1.00788 0.32138,-1.34972 0.82868,-0.93275 2.17135,-0.77223 2.94076,-0.0893 1.26929,1.12783 1.58185,3.40784 1.83303,5.23981 0.0667,0.48613 0.12947,0.94651 0.20567,1.36278 -0.0762,0.41628 -0.13899,0.87666 -0.20567,1.36278 -0.25118,1.83198 -0.56374,4.11198 -1.83303,5.23981 -0.76941,0.68333 -2.11244,0.84314 -2.94076,-0.0893 -0.30374,-0.34184 -0.42404,-0.84667 -0.32138,-1.34973 0.0984,-0.48119 0.38065,-0.86395 0.77505,-1.05022 0.52741,-0.24871 1.02835,0.0497 1.23261,0.45791 0.0734,0.14605 0.26776,0.64558 -0.30127,0.94791 -0.12912,0.0684 -0.17815,0.2286 -0.10936,0.35772 0.0684,0.12947 0.22789,0.17815 0.35771,0.10936 0.73907,-0.39264 0.79693,-1.11266 0.526,-1.65206 -0.32139,-0.641 -1.13172,-1.07668 -1.93182,-0.6992 -0.5461,0.25823 -0.93521,0.77681 -1.06715,1.42275 -0.13617,0.66534 0.03,1.34091 0.44415,1.80693 0.51505,0.57996 1.18533,0.82761 1.8475,0.82761"
       style="fill:#323267;fill-opacity:1;fill-rule:nonzero;stroke:none;stroke-width:0.0352778"
       id="path2135" />
    <path
       d="m -270.62977,148.16661 c -0.30585,0.30374 -0.43321,0.64876 -0.55703,0.98531 -0.091,0.24765 -0.17745,0.48189 -0.33585,0.70591 -0.34007,0.48048 -0.95391,0.84102 -1.56033,0.56162 -0.393,-0.18062 -0.63606,-0.59549 -0.5775,-0.98601 0.0603,-0.40288 0.36407,-1.00224 0.95321,-1.00224 0.14605,0 0.26458,-0.11854 0.26458,-0.26459 0,-0.1464 -0.11853,-0.26458 -0.26458,-0.26458 -0.58914,0 -0.89288,-0.59972 -0.95321,-1.0026 -0.0586,-0.39052 0.1845,-0.80503 0.57785,-0.98601 0.60537,-0.2794 1.21991,0.0811 1.55998,0.56198 0.1584,0.22366 0.24483,0.4579 0.33585,0.7059 0.12382,0.3362 0.25118,0.68122 0.55703,0.98531 z m -2.02459,2.87832 c 0.64135,0 1.22485,-0.40288 1.56351,-0.88124 0.19897,-0.28152 0.30622,-0.57221 0.40076,-0.82903 0.13758,-0.37359 0.25647,-0.69638 0.62477,-0.95038 0.0713,-0.0497 0.11395,-0.13088 0.11395,-0.21767 0,-0.0871 -0.0427,-0.16827 -0.11395,-0.21801 -0.3683,-0.254 -0.48719,-0.5768 -0.62477,-0.95039 -0.0945,-0.25682 -0.20179,-0.54751 -0.40076,-0.82867 -0.45085,-0.63747 -1.33561,-1.14053 -2.21297,-0.73696 -0.60255,0.27729 -0.97261,0.92675 -0.87983,1.54517 0.0572,0.38171 0.27552,0.88583 0.67875,1.18886 -0.40323,0.30304 -0.6216,0.8068 -0.67875,1.18851 -0.0928,0.61842 0.27728,1.26788 0.87983,1.54552 0.21837,0.10019 0.43709,0.14429 0.64946,0.14429"
       style="fill:#323267;fill-opacity:1;fill-rule:nonzero;stroke:none;stroke-width:0.0352778"
       id="path2137" />
    <path
       d="m -271.81722,163.6592 h -2.4705 v -2.4705 h 2.4705 z m -2.73508,0.52917 h 2.99967 c 0.14605,0 0.26458,-0.11853 0.26458,-0.26458 v -2.99967 c 0,-0.14605 -0.11853,-0.26459 -0.26458,-0.26459 h -2.99967 c -0.14605,0 -0.26459,0.11854 -0.26459,0.26459 v 2.99967 c 0,0.14605 0.11854,0.26458 0.26459,0.26458"
       style="fill:#323267;fill-opacity:1;fill-rule:nonzero;stroke:none;stroke-width:0.0352778"
       id="path2139" />
    <path
       d="m -271.54628,161.1947 c 0.0677,0 0.13546,-0.0258 0.18697,-0.0776 l 12.76174,-12.76139 c 0.0497,-0.0497 0.0776,-0.11677 0.0776,-0.18732 0,-0.0702 -0.0279,-0.13723 -0.0776,-0.18698 l -12.76174,-12.76209 c -0.10336,-0.10336 -0.27093,-0.10336 -0.3743,0 -0.10301,0.10337 -0.10301,0.27094 0,0.3743 l 12.57512,12.57477 -12.57512,12.57476 c -0.10301,0.10336 -0.10301,0.27093 0,0.37395 0.0519,0.0519 0.11959,0.0776 0.18733,0.0776"
       style="fill:#323267;fill-opacity:1;fill-rule:nonzero;stroke:none;stroke-width:0.0352778"
       id="path2141" />
    <path
       d="m -271.81722,135.14805 h -2.4705 v -2.4705 h 2.4705 z m -2.73508,0.52917 h 2.99967 c 0.14605,0 0.26458,-0.11853 0.26458,-0.26458 v -2.99967 c 0,-0.14605 -0.11853,-0.26459 -0.26458,-0.26459 h -2.99967 c -0.14605,0 -0.26459,0.11854 -0.26459,0.26459 v 2.99967 c 0,0.14605 0.11854,0.26458 0.26459,0.26458"
       style="fill:#323267;fill-opacity:1;fill-rule:nonzero;stroke:none;stroke-width:0.0352778"
       id="path2143" />
  </g>
</svg>
