<?xml version="1.0" encoding="UTF-8" standalone="no"?>
<svg
   xmlns:dc="http://purl.org/dc/elements/1.1/"
   xmlns:cc="http://creativecommons.org/ns#"
   xmlns:rdf="http://www.w3.org/1999/02/22-rdf-syntax-ns#"
   xmlns:svg="http://www.w3.org/2000/svg"
   xmlns="http://www.w3.org/2000/svg"
   xmlns:sodipodi="http://sodipodi.sourceforge.net/DTD/sodipodi-0.dtd"
   xmlns:inkscape="http://www.inkscape.org/namespaces/inkscape"
   width="31.94478mm"
   height="18.839581mm"
   viewBox="0 0 31.94478 18.839581"
   version="1.1"
   id="svg3770"
   inkscape:version="1.0.2-2 (e86c870879, 2021-01-15)"
   sodipodi:docname="ornament-right.svg">
  <defs
     id="defs3764" />
  <sodipodi:namedview
     id="base"
     pagecolor="#ffffff"
     bordercolor="#666666"
     borderopacity="1.0"
     inkscape:pageopacity="0.0"
     inkscape:pageshadow="2"
     inkscape:zoom="3.959798"
     inkscape:cx="119.6943"
     inkscape:cy="141.19788"
     inkscape:document-units="mm"
     inkscape:current-layer="layer1"
     inkscape:document-rotation="0"
     showgrid="false"
     fit-margin-top="0"
     fit-margin-left="0"
     fit-margin-right="0"
     fit-margin-bottom="0"
     inkscape:window-width="3840"
     inkscape:window-height="2080"
     inkscape:window-x="2869"
     inkscape:window-y="-11"
     inkscape:window-maximized="1" />
  <metadata
     id="metadata3767">
    <rdf:RDF>
      <cc:Work
         rdf:about="">
        <dc:format>image/svg+xml</dc:format>
        <dc:type
           rdf:resource="http://purl.org/dc/dcmitype/StillImage" />
        <dc:title></dc:title>
      </cc:Work>
    </rdf:RDF>
  </metadata>
  <g
     inkscape:label="レイヤー 1"
     inkscape:groupmode="layer"
     id="layer1"
     transform="translate(595.03189,172.7055)">
    <path
       d="m -590.81293,-172.21725 c 1.35361,-3.6e-4 2.77847,0.45966 3.92394,1.18886 2.19252,1.39629 3.75709,3.50096 4.99851,5.37598 l 0.36795,0.55668 c 2.63243,3.9871 5.35446,8.1093 10.04429,10.0076 1.55328,0.62865 3.83081,1.03152 5.56401,0.27517 1.00824,-0.43921 1.73355,-1.2252 2.15688,-2.3361 0.0515,-0.13723 0.20426,-0.20567 0.34149,-0.1531 0.13618,0.0519 0.20497,0.20496 0.15276,0.34113 -0.47555,1.24884 -1.29611,2.13466 -2.43946,2.63314 -2.37137,1.03434 -5.17208,0.0547 -5.97429,-0.26952 -4.84223,-1.96004 -7.61013,-6.15245 -10.28701,-10.20657 l -0.36794,-0.55633 c -1.21038,-1.82845 -2.73227,-3.87844 -4.84153,-5.22147 -2.76436,-1.76071 -5.48604,-1.22766 -6.64351,0.16687 -0.78175,0.94156 -0.91404,2.30857 -0.31467,3.24979 0.30938,0.48577 0.8583,0.84772 1.46861,0.96802 0.55315,0.11006 1.08303,0.0109 1.48978,-0.27623 0.11959,-0.084 0.28469,-0.0557 0.36901,0.0635 0.084,0.11959 0.0557,0.28469 -0.0639,0.36866 -0.52635,0.37182 -1.20015,0.50023 -1.8976,0.363 -0.7493,-0.14781 -1.42663,-0.59725 -1.81222,-1.20262 -0.71966,-1.12994 -0.57079,-2.75872 0.35384,-3.87244 0.85796,-1.03328 2.10114,-1.46402 3.41101,-1.46402"
       style="fill-opacity:1;fill-rule:nonzero;stroke:none;stroke-width:0.0352778;fill:#323267"
       id="path2279" />
    <path
       d="m -590.02906,-172.7055 c 1.6069,0 3.048,0.51365 3.58669,0.73166 4.84188,1.95933 7.60977,6.15139 10.28665,10.20481 l 0.3683,0.55774 c 1.21108,1.8288 2.73332,3.87914 4.84187,5.22146 2.76402,1.76072 5.4857,1.22802 6.64352,-0.16651 0.78175,-0.94156 0.91404,-2.30858 0.31432,-3.24979 -0.30939,-0.48613 -0.85831,-0.84808 -1.46861,-0.96802 -0.55386,-0.10866 -1.08268,-0.0109 -1.48943,0.27587 -0.11924,0.0843 -0.28469,0.0557 -0.36865,-0.0635 -0.0843,-0.11959 -0.0561,-0.28469 0.0635,-0.36865 0.52599,-0.37148 1.19979,-0.50059 1.89688,-0.36301 0.7493,0.14781 1.42699,0.59725 1.81257,1.20262 0.72002,1.1303 0.57115,2.75872 -0.35348,3.87279 -1.74449,2.10115 -5.08106,1.70992 -7.33496,0.27482 -2.19216,-1.39594 -3.75708,-3.50097 -4.99886,-5.37563 l -0.36865,-0.55809 c -2.63207,-3.98639 -5.35411,-8.1086 -10.04323,-10.00655 -1.55293,-0.62865 -3.83046,-1.03117 -5.56401,-0.27516 -1.00824,0.4392 -1.73391,1.22555 -2.15688,2.33609 -0.0522,0.13688 -0.20568,0.20426 -0.34149,0.15346 -0.13653,-0.0522 -0.20497,-0.20496 -0.15311,-0.34149 0.47555,-1.24883 1.29646,-2.13466 2.43981,-2.63313 0.77788,-0.33938 1.60232,-0.46179 2.38725,-0.46179"
       style="fill-opacity:1;fill-rule:nonzero;stroke:none;stroke-width:0.0352778;fill:#323267"
       id="path2281" />
  </g>
</svg>
