<?xml version="1.0" encoding="UTF-8" standalone="no"?>
<svg
   xmlns:dc="http://purl.org/dc/elements/1.1/"
   xmlns:cc="http://creativecommons.org/ns#"
   xmlns:rdf="http://www.w3.org/1999/02/22-rdf-syntax-ns#"
   xmlns:svg="http://www.w3.org/2000/svg"
   xmlns="http://www.w3.org/2000/svg"
   xmlns:sodipodi="http://sodipodi.sourceforge.net/DTD/sodipodi-0.dtd"
   xmlns:inkscape="http://www.inkscape.org/namespaces/inkscape"
   width="65.899948mm"
   height="12.45475mm"
   viewBox="0 0 65.899947 12.45475"
   version="1.1"
   id="svg884"
   inkscape:version="1.0.2-2 (e86c870879, 2021-01-15)"
   sodipodi:docname="separator-right.svg">
  <defs
     id="defs878" />
  <sodipodi:namedview
     id="base"
     pagecolor="#ffffff"
     bordercolor="#666666"
     borderopacity="1.0"
     inkscape:pageopacity="0.0"
     inkscape:pageshadow="2"
     inkscape:zoom="1.4"
     inkscape:cx="354.81385"
     inkscape:cy="346.3651"
     inkscape:document-units="mm"
     inkscape:current-layer="layer1"
     inkscape:document-rotation="0"
     showgrid="false"
     fit-margin-top="0"
     fit-margin-left="0"
     fit-margin-right="0"
     fit-margin-bottom="0"
     inkscape:window-width="3840"
     inkscape:window-height="2080"
     inkscape:window-x="2869"
     inkscape:window-y="-11"
     inkscape:window-maximized="1" />
  <metadata
     id="metadata881">
    <rdf:RDF>
      <cc:Work
         rdf:about="">
        <dc:format>image/svg+xml</dc:format>
        <dc:type
           rdf:resource="http://purl.org/dc/dcmitype/StillImage" />
        <dc:title></dc:title>
      </cc:Work>
    </rdf:RDF>
  </metadata>
  <g
     inkscape:label="レイヤー 1"
     inkscape:groupmode="layer"
     id="layer1"
     transform="translate(33.103744,-132.57013)">
    <g
       id="g1510"
       transform="matrix(-1,0,0,1,-50.046624,0.4582286)"
       style="fill:#323267;fill-opacity:1">
      <path
         d="m -68.73207,144.56666 c -0.58462,0 -1.12441,-0.24518 -1.50724,-0.69109 -0.47844,-0.55739 -0.64724,-1.32997 -0.45131,-2.06657 0.1615,-0.60749 0.64368,-1.10984 1.22827,-1.28024 0.49604,-0.14287 0.98111,-0.0264 1.36846,0.3302 0.37818,0.3489 0.52987,0.93028 0.37641,1.44604 -0.13652,0.46108 -0.49106,0.78281 -0.94791,0.86043 -0.14147,0.0272 -0.28046,-0.0723 -0.30487,-0.21626 -0.0245,-0.14428 0.0724,-0.28081 0.21632,-0.30515 0.35207,-0.06 0.48295,-0.33267 0.52917,-0.48966 0.097,-0.32667 0.006,-0.69109 -0.2279,-0.90628 -0.31467,-0.29034 -0.6423,-0.27517 -0.86197,-0.21096 -0.4039,0.11747 -0.75146,0.4826 -0.8647,0.90805 -0.14884,0.5595 -0.0179,1.16699 0.3416,1.58573 0.32177,0.37501 0.77583,0.5521 1.27853,0.49671 1.24531,-0.1344 1.58715,-1.7787 1.6764,-2.47932 l 0.0201,-0.15945 c 0.10901,-0.87419 0.23284,-1.86479 0.86607,-2.56964 0.57926,-0.64487 1.53741,-0.90769 2.33045,-0.63852 0.83009,0.28116 1.41993,1.1377 1.37125,1.99284 -0.0508,0.89535 -0.80045,1.6764 -1.67111,1.74025 -0.43639,0.0307 -0.889,-0.12629 -1.24248,-0.43462 -0.3422,-0.2988 -0.55351,-0.71014 -0.57926,-1.12819 -0.009,-0.1464 0.1016,-0.27163 0.24765,-0.28081 0.14464,-0.0102 0.27128,0.1016 0.28045,0.24765 0.0173,0.27835 0.16264,0.55633 0.39935,0.76271 0.2473,0.2159 0.5595,0.32491 0.85513,0.3055 0.60502,-0.0445 1.14618,-0.61348 1.18181,-1.24248 0.0356,-0.62583 -0.3997,-1.25412 -1.01283,-1.46191 -0.59796,-0.20285 -1.32503,-0.001 -1.76636,0.49107 -0.52246,0.58173 -0.63076,1.44568 -0.73518,2.28176 l -0.0201,0.16087 c -0.2219,1.74378 -1.00366,2.81517 -2.14454,2.93899 -0.0769,0.008 -0.15381,0.0123 -0.22966,0.0123"
         style="fill:#323267;fill-opacity:1;fill-rule:nonzero;stroke:none;stroke-width:0.0352778"
         id="path2599" />
      <path
         d="m -64.31494,138.60189 c -0.62124,0 -1.25447,-0.26705 -1.68169,-0.7426 -0.63323,-0.70485 -0.75706,-1.6958 -0.86607,-2.56963 l -0.0201,-0.15945 c -0.0892,-0.70097 -0.43109,-2.34492 -1.67675,-2.47968 -0.50112,-0.054 -0.95641,0.12206 -1.27818,0.49706 -0.35952,0.41875 -0.49044,1.02624 -0.3416,1.58539 0.11324,0.4258 0.4608,0.79093 0.8647,0.9084 0.21967,0.0642 0.5473,0.0794 0.86197,-0.21131 0.23354,-0.21484 0.32491,-0.57926 0.2279,-0.90594 -0.0462,-0.15698 -0.1771,-0.42968 -0.52917,-0.48965 -0.14393,-0.0243 -0.24084,-0.16087 -0.21632,-0.30515 0.0244,-0.14359 0.16305,-0.24272 0.30487,-0.21626 0.45685,0.0773 0.81139,0.39935 0.94791,0.86043 0.15346,0.51576 0.002,1.09714 -0.37641,1.44603 -0.38735,0.35701 -0.87313,0.47343 -1.36846,0.32985 -0.58459,-0.17004 -1.06677,-0.67239 -1.22827,-1.28058 -0.19593,-0.7359 -0.0271,-1.50848 0.45131,-2.06587 0.43229,-0.50412 1.06539,-0.75071 1.7369,-0.67874 1.14088,0.12382 1.92264,1.19521 2.14454,2.93899 l 0.0201,0.16051 c 0.10442,0.83609 0.21272,1.70039 0.73518,2.28212 0.44168,0.49213 1.1684,0.69427 1.76636,0.49107 0.61313,-0.20779 1.04846,-0.83609 1.01283,-1.46156 -0.0356,-0.62936 -0.57679,-1.19839 -1.18181,-1.24284 -0.29598,-0.0219 -0.60783,0.09 -0.85513,0.30551 -0.23671,0.20637 -0.38206,0.48436 -0.39935,0.7627 -0.009,0.14605 -0.13617,0.25683 -0.28045,0.24765 -0.14605,-0.009 -0.25683,-0.13476 -0.24765,-0.28081 0.0258,-0.41804 0.23706,-0.82938 0.57926,-1.12818 0.35348,-0.30833 0.80645,-0.46496 1.24248,-0.43462 0.87066,0.0639 1.62031,0.8449 1.67111,1.7406 0.0487,0.85478 -0.54116,1.71133 -1.37125,1.99249 -0.20814,0.0706 -0.42792,0.10407 -0.64876,0.10407"
         style="fill:#323267;fill-opacity:1;fill-rule:nonzero;stroke:none;stroke-width:0.0352778"
         id="path2601" />
      <path
         d="m -82.06054,138.33907 7.7355,4.59917 c 0.38929,-0.94016 1.80742,-3.74439 5.14847,-4.62175 -3.33802,-0.86959 -4.75724,-3.64419 -5.14738,-4.57658 z m 7.87096,5.25181 c -0.047,0 -0.0937,-0.0124 -0.13504,-0.0371 l -8.38881,-4.98722 c -0.0804,-0.0476 -0.1294,-0.13405 -0.1294,-0.22754 0,-0.0931 0.049,-0.17956 0.1294,-0.22719 l 8.38881,-4.98722 c 0.069,-0.0416 0.15378,-0.0487 0.22945,-0.0197 0.0755,0.0289 0.13381,0.0907 0.15804,0.16757 0.0617,0.19544 1.57195,4.77802 6.90016,4.77802 0.14605,0 0.26458,0.11853 0.26458,0.26458 0,0.14605 -0.11853,0.26459 -0.26458,0.26459 -5.32797,0 -6.83828,4.62844 -6.89988,4.82564 -0.0243,0.0769 -0.0824,0.139 -0.15807,0.16793 -0.0306,0.0116 -0.0627,0.0176 -0.0947,0.0176"
         style="fill:#323267;fill-opacity:1;fill-rule:nonzero;stroke:none;stroke-width:0.0352778"
         id="path2603" />
      <path
         d="m -17.20746,138.60366 h -50.78977 c -0.1464,0 -0.26458,-0.11854 -0.26458,-0.26459 0,-0.14605 0.11818,-0.26458 0.26458,-0.26458 h 50.78977 c 0.14605,0 0.26458,0.11853 0.26458,0.26458 0,0.14605 -0.11853,0.26459 -0.26458,0.26459"
         style="fill:#323267;fill-opacity:1;fill-rule:nonzero;stroke:none;stroke-width:0.0352778"
         id="path2605" />
      <path
         d="m -74.18929,143.59088 c -0.078,0 -0.15533,-0.0346 -0.20768,-0.10055 l -3.97909,-5.03025 c -0.0765,-0.0967 -0.0759,-0.23354 10e-4,-0.32985 l 3.97908,-4.94418 c 0.0918,-0.1136 0.25838,-0.13194 0.37208,-0.0399 0.1138,0.0914 0.13172,0.25788 0.0402,0.37183 l -3.84679,4.77943 3.84817,4.86481 c 0.0907,0.1143 0.0711,0.28081 -0.0434,0.37148 -0.0485,0.0385 -0.1064,0.0572 -0.16397,0.0572"
         style="fill:#323267;fill-opacity:1;fill-rule:nonzero;stroke:none;stroke-width:0.0352778"
         id="path2607" />
    </g>
  </g>
</svg>
